<svg width="28" height="28" viewBox="0 0 28 28" fill="none" xmlns="http://www.w3.org/2000/svg">
<path d="M3.61492 19.5234C3.44602 19.5235 3.2807 19.4747 3.13893 19.3829C2.99715 19.2911 2.88497 19.1602 2.81593 19.0061C1.98056 17.1404 1.62535 15.0953 1.78267 13.0572C1.93999 11.0191 2.60483 9.05282 3.71662 7.33743C4.82841 5.62205 6.35179 4.21216 8.14794 3.23623C9.9441 2.26031 11.9559 1.74938 14.0001 1.75C14.2322 1.75 14.4547 1.84219 14.6188 2.00628C14.7829 2.17038 14.8751 2.39294 14.8751 2.625V14C14.8751 14.169 14.8262 14.3343 14.7343 14.4761C14.6424 14.6179 14.5114 14.73 14.3572 14.799L3.97203 19.4447C3.85991 19.4959 3.73819 19.5227 3.61492 19.5234Z" fill="white"/>
<path d="M17.1494 3.7287C17.086 3.71583 17.0205 3.71721 16.9576 3.73272C16.8948 3.74823 16.8362 3.7775 16.786 3.81841C16.7358 3.85932 16.6954 3.91085 16.6675 3.96929C16.6397 4.02773 16.6251 4.09162 16.625 4.15636V14.0001C16.6245 14.5067 16.4777 15.0024 16.2022 15.4276C15.9266 15.8527 15.5341 16.1892 15.0718 16.3965L5.6399 20.6173C5.58143 20.6434 5.52941 20.682 5.4875 20.7304C5.44559 20.7788 5.41481 20.8358 5.39734 20.8974C5.37987 20.959 5.37613 21.0237 5.38639 21.0869C5.39664 21.1501 5.42064 21.2102 5.45669 21.2632C6.17852 22.3248 7.07452 23.2568 8.10685 24.0199C10.0627 25.4749 12.4373 26.2574 14.875 26.2501C21.1471 26.2501 26.25 21.1472 26.25 14.8751C26.25 9.38175 22.3354 4.78526 17.1494 3.7287Z" fill="white"/>
</svg>
